<mxfile host="app.diagrams.net" modified="2023-02-23T12:34:41.098Z" agent="5.0 (Windows)" etag="jF2D9rhmlLcPpC8rCgFh" version="20.8.23" type="github">
  <diagram id="C5RBs43oDa-KdzZeNtuy" name="Page-1">
    <mxGraphModel dx="1434" dy="3120" grid="1" gridSize="10" guides="1" tooltips="1" connect="1" arrows="1" fold="1" page="1" pageScale="1" pageWidth="827" pageHeight="1169" math="0" shadow="0">
      <root>
        <mxCell id="WIyWlLk6GJQsqaUBKTNV-0" />
        <mxCell id="WIyWlLk6GJQsqaUBKTNV-1" parent="WIyWlLk6GJQsqaUBKTNV-0" />
        <mxCell id="UCMsOLKX2ZGQO5UQWUzW-1" style="edgeStyle=orthogonalEdgeStyle;rounded=0;orthogonalLoop=1;jettySize=auto;html=1;exitX=0.5;exitY=1;exitDx=0;exitDy=0;" edge="1" parent="WIyWlLk6GJQsqaUBKTNV-1" source="UCMsOLKX2ZGQO5UQWUzW-0">
          <mxGeometry relative="1" as="geometry">
            <mxPoint x="370" y="-1650" as="targetPoint" />
          </mxGeometry>
        </mxCell>
        <mxCell id="UCMsOLKX2ZGQO5UQWUzW-0" value="START" style="ellipse;whiteSpace=wrap;html=1;" vertex="1" parent="WIyWlLk6GJQsqaUBKTNV-1">
          <mxGeometry x="310" y="-1780" width="120" height="80" as="geometry" />
        </mxCell>
        <mxCell id="UCMsOLKX2ZGQO5UQWUzW-4" style="edgeStyle=orthogonalEdgeStyle;rounded=0;orthogonalLoop=1;jettySize=auto;html=1;exitX=0.5;exitY=1;exitDx=0;exitDy=0;entryX=0.5;entryY=0;entryDx=0;entryDy=0;" edge="1" parent="WIyWlLk6GJQsqaUBKTNV-1" source="UCMsOLKX2ZGQO5UQWUzW-2" target="UCMsOLKX2ZGQO5UQWUzW-3">
          <mxGeometry relative="1" as="geometry" />
        </mxCell>
        <mxCell id="UCMsOLKX2ZGQO5UQWUzW-2" value="i=0" style="rounded=1;whiteSpace=wrap;html=1;" vertex="1" parent="WIyWlLk6GJQsqaUBKTNV-1">
          <mxGeometry x="310" y="-1560" width="120" height="60" as="geometry" />
        </mxCell>
        <mxCell id="UCMsOLKX2ZGQO5UQWUzW-6" style="edgeStyle=orthogonalEdgeStyle;rounded=0;orthogonalLoop=1;jettySize=auto;html=1;exitX=0;exitY=0.5;exitDx=0;exitDy=0;entryX=1;entryY=0.5;entryDx=0;entryDy=0;" edge="1" parent="WIyWlLk6GJQsqaUBKTNV-1" source="UCMsOLKX2ZGQO5UQWUzW-3" target="UCMsOLKX2ZGQO5UQWUzW-5">
          <mxGeometry relative="1" as="geometry">
            <Array as="points">
              <mxPoint x="300" y="-1430" />
              <mxPoint x="300" y="-1430" />
            </Array>
          </mxGeometry>
        </mxCell>
        <mxCell id="UCMsOLKX2ZGQO5UQWUzW-16" style="edgeStyle=orthogonalEdgeStyle;rounded=0;orthogonalLoop=1;jettySize=auto;html=1;exitX=1;exitY=0.5;exitDx=0;exitDy=0;entryX=0;entryY=0.5;entryDx=0;entryDy=0;" edge="1" parent="WIyWlLk6GJQsqaUBKTNV-1" source="UCMsOLKX2ZGQO5UQWUzW-3" target="UCMsOLKX2ZGQO5UQWUzW-21">
          <mxGeometry relative="1" as="geometry">
            <mxPoint x="500" y="-1430" as="targetPoint" />
          </mxGeometry>
        </mxCell>
        <mxCell id="UCMsOLKX2ZGQO5UQWUzW-3" value="i&amp;lt;a dÅ‚" style="rhombus;whiteSpace=wrap;html=1;" vertex="1" parent="WIyWlLk6GJQsqaUBKTNV-1">
          <mxGeometry x="330" y="-1470" width="80" height="80" as="geometry" />
        </mxCell>
        <mxCell id="UCMsOLKX2ZGQO5UQWUzW-8" style="edgeStyle=orthogonalEdgeStyle;rounded=0;orthogonalLoop=1;jettySize=auto;html=1;exitX=0.5;exitY=0;exitDx=0;exitDy=0;" edge="1" parent="WIyWlLk6GJQsqaUBKTNV-1" source="UCMsOLKX2ZGQO5UQWUzW-5">
          <mxGeometry relative="1" as="geometry">
            <mxPoint x="370" y="-1490" as="targetPoint" />
            <Array as="points">
              <mxPoint x="200" y="-1480" />
              <mxPoint x="370" y="-1480" />
            </Array>
          </mxGeometry>
        </mxCell>
        <mxCell id="UCMsOLKX2ZGQO5UQWUzW-5" value="&lt;div&gt;suma + a[i]&lt;/div&gt;&lt;div&gt;i=i+1&lt;br&gt;&lt;/div&gt;" style="rounded=0;whiteSpace=wrap;html=1;" vertex="1" parent="WIyWlLk6GJQsqaUBKTNV-1">
          <mxGeometry x="140" y="-1460" width="120" height="60" as="geometry" />
        </mxCell>
        <mxCell id="UCMsOLKX2ZGQO5UQWUzW-15" value="TAK" style="text;html=1;align=center;verticalAlign=middle;resizable=0;points=[];autosize=1;strokeColor=none;fillColor=none;" vertex="1" parent="WIyWlLk6GJQsqaUBKTNV-1">
          <mxGeometry x="290" y="-1455" width="40" height="30" as="geometry" />
        </mxCell>
        <mxCell id="UCMsOLKX2ZGQO5UQWUzW-20" value="NIE" style="text;html=1;align=center;verticalAlign=middle;resizable=0;points=[];autosize=1;strokeColor=none;fillColor=none;" vertex="1" parent="WIyWlLk6GJQsqaUBKTNV-1">
          <mxGeometry x="440" y="-1460" width="40" height="30" as="geometry" />
        </mxCell>
        <mxCell id="UCMsOLKX2ZGQO5UQWUzW-25" style="edgeStyle=orthogonalEdgeStyle;rounded=0;orthogonalLoop=1;jettySize=auto;html=1;exitX=0.5;exitY=1;exitDx=0;exitDy=0;entryX=0.45;entryY=0;entryDx=0;entryDy=0;entryPerimeter=0;" edge="1" parent="WIyWlLk6GJQsqaUBKTNV-1" source="UCMsOLKX2ZGQO5UQWUzW-21" target="UCMsOLKX2ZGQO5UQWUzW-24">
          <mxGeometry relative="1" as="geometry" />
        </mxCell>
        <mxCell id="UCMsOLKX2ZGQO5UQWUzW-21" value="wyswietl suma" style="rounded=1;whiteSpace=wrap;html=1;" vertex="1" parent="WIyWlLk6GJQsqaUBKTNV-1">
          <mxGeometry x="510" y="-1460" width="120" height="60" as="geometry" />
        </mxCell>
        <mxCell id="UCMsOLKX2ZGQO5UQWUzW-23" style="edgeStyle=orthogonalEdgeStyle;rounded=0;orthogonalLoop=1;jettySize=auto;html=1;exitX=0.5;exitY=1;exitDx=0;exitDy=0;" edge="1" parent="WIyWlLk6GJQsqaUBKTNV-1" source="UCMsOLKX2ZGQO5UQWUzW-22" target="UCMsOLKX2ZGQO5UQWUzW-2">
          <mxGeometry relative="1" as="geometry" />
        </mxCell>
        <mxCell id="UCMsOLKX2ZGQO5UQWUzW-22" value="a=[1,3,4,6]" style="rounded=1;whiteSpace=wrap;html=1;" vertex="1" parent="WIyWlLk6GJQsqaUBKTNV-1">
          <mxGeometry x="310" y="-1650" width="120" height="60" as="geometry" />
        </mxCell>
        <mxCell id="UCMsOLKX2ZGQO5UQWUzW-24" value="STOP" style="ellipse;whiteSpace=wrap;html=1;" vertex="1" parent="WIyWlLk6GJQsqaUBKTNV-1">
          <mxGeometry x="510" y="-1370" width="120" height="80" as="geometry" />
        </mxCell>
      </root>
    </mxGraphModel>
  </diagram>
</mxfile>
